<?xml version="1.0" encoding="UTF-8"?>
<svg id="Warstwa_1" xmlns="http://www.w3.org/2000/svg" version="1.1" xmlns:xlink="http://www.w3.org/1999/xlink" viewBox="0 0 1000 400">
  <!-- Generator: Adobe Illustrator 29.8.1, SVG Export Plug-In . SVG Version: 2.1.1 Build 2)  -->
  <defs>
    <style>
      .st0 {
        fill: url(#Gradient_bez_nazwy_3);
      }

      .st1 {
        font-size: 28px;
        letter-spacing: .1em;
      }

      .st1, .st2 {
        fill: #c4994f;
        font-family: TimesNewRomanPSMT, 'Times New Roman';
        isolation: isolate;
      }

      .st3 {
        fill: url(#Gradient_bez_nazwy_2);
        fill-rule: evenodd;
      }

      .st2 {
        font-size: 100px;
      }

      .st4 {
        fill: #2b3139;
      }
    </style>
    <linearGradient id="Gradient_bez_nazwy_2" data-name="Gradient bez nazwy 2" x1="200" y1="619" x2="201" y2="618" gradientTransform="translate(-19798 74425.8) scale(100 -120)" gradientUnits="userSpaceOnUse">
      <stop offset="0" stop-color="#e4c47a"/>
      <stop offset="1" stop-color="#c4994f"/>
    </linearGradient>
    <linearGradient id="Gradient_bez_nazwy_3" data-name="Gradient bez nazwy 3" x1="195.9" y1="617.5" x2="196.9" y2="616.5" gradientTransform="translate(-6232 40921.7) scale(33 -66)" gradientUnits="userSpaceOnUse">
      <stop offset="0" stop-color="#e4c47a"/>
      <stop offset="1" stop-color="#c4994f"/>
    </linearGradient>
  </defs>
  <rect class="st4" y="0" width="1000" height="400"/>
  <g>
    <g id="mark-with-initials">
      <text class="st2" transform="translate(19.4 210)"><tspan x="0" y="0">KM</tspan></text>
      <g>
        <path class="st3" d="M250,140l50,60-50,60-50-60,50-60ZM250,152l-38,48,38,48,38-48-38-48Z"/>
        <path class="st0" d="M250,164c-10,10.7-16,22.7-18,36,2,12,8,22,18,30,8-8,13-18,15-30-2-16.7-7-28.7-15-36ZM250,164c5.3,7.3,8.7,16.7,10,28-1.3,10.7-4.7,20.7-10,30"/>
      </g>
    </g>
    <g id="text-group">
      <text class="st1" transform="translate(321 175)"><tspan x="0" y="0">KANCELARIA</tspan></text>
      <text class="st1" transform="translate(321 210)"><tspan x="0" y="0">ADWOKACKA</tspan></text>
    </g>
  </g>
</svg>