<?xml version="1.0" encoding="UTF-8"?>
<svg id="Warstwa_1" xmlns="http://www.w3.org/2000/svg" version="1.1" xmlns:xlink="http://www.w3.org/1999/xlink" viewBox="0 0 400 400">
  <!-- Generator: Adobe Illustrator 29.8.1, SVG Export Plug-In . SVG Version: 2.1.1 Build 2)  -->
  <defs>
    <style>
      .st0 {
        filter: url(#subtle-shadow);
      }

      .st1 {
        stroke: url(#Gradient_bez_nazwy_4);
      }

      .st1, .st2, .st3 {
        isolation: isolate;
      }

      .st1, .st3 {
        fill: none;
        opacity: .5;
      }

      .st2 {
        opacity: .3;
      }

      .st2, .st4 {
        fill: #2b3139;
      }

      .st5 {
        fill: url(#Gradient_bez_nazwy);
        fill-rule: evenodd;
      }

      .st3 {
        stroke: url(#Gradient_bez_nazwy_3);
      }

      .st6 {
        fill: url(#Gradient_bez_nazwy_2);
      }
    </style>
    <filter id="subtle-shadow">
      <feGaussianBlur in="SourceAlpha" stdDeviation="2"/>
      <feOffset dx="0" dy="2" result="offsetblur"/>
      <feFlood flood-color="#000000" flood-opacity="0.3"/>
      <feComposite in2="offsetblur" operator="in"/>
      <feMerge>
        <feMergeNode/>
        <feMergeNode in="SourceGraphic"/>
      </feMerge>
    </filter>
    <linearGradient id="Gradient_bez_nazwy" data-name="Gradient bez nazwy" x1="-96.5" y1="620" x2="-95.5" y2="619" gradientTransform="translate(20368 148872.6) scale(210 -240)" gradientUnits="userSpaceOnUse">
      <stop offset="0" stop-color="#e4c47a"/>
      <stop offset=".5" stop-color="#d4b065"/>
      <stop offset="1" stop-color="#c4994f"/>
    </linearGradient>
    <linearGradient id="Gradient_bez_nazwy_2" data-name="Gradient bez nazwy 2" x1="-95.5" y1="619.2" x2="-94.5" y2="618.2" gradientTransform="translate(6373 80624.7) scale(65 -130)" gradientUnits="userSpaceOnUse">
      <stop offset="0" stop-color="#e4c47a"/>
      <stop offset=".5" stop-color="#d4b065"/>
      <stop offset="1" stop-color="#c4994f"/>
    </linearGradient>
    <linearGradient id="Gradient_bez_nazwy_3" data-name="Gradient bez nazwy 3" x1="-94.3" y1="400.1" x2="-93.3" y2="399.1" gradientTransform="translate(3903 599.9) scale(40 -1)" gradientUnits="userSpaceOnUse">
      <stop offset="0" stop-color="#e4c47a"/>
      <stop offset=".5" stop-color="#d4b065"/>
      <stop offset="1" stop-color="#c4994f"/>
    </linearGradient>
    <linearGradient id="Gradient_bez_nazwy_4" data-name="Gradient bez nazwy 4" x1="-94.3" y1="400.1" x2="-93.3" y2="399.1" gradientTransform="translate(4023 599.9) scale(40 -1)" gradientUnits="userSpaceOnUse">
      <stop offset="0" stop-color="#e4c47a"/>
      <stop offset=".5" stop-color="#d4b065"/>
      <stop offset="1" stop-color="#c4994f"/>
    </linearGradient>
  </defs>
  <rect class="st4" y="0" width="400" height="400"/>
  <g class="st0">
    <path class="st5" d="M200,80l105,120-105,120-105-120,105-120ZM200,105l-80,95,80,95,80-95-80-95Z"/>
    <g id="leaf-flame">
      <path class="st6" d="M200,130c-18.7,16.7-30.3,40-35,70,4.7,23.3,16.3,43.3,35,60,14.7-16.7,24.7-36.7,30-60-5.3-33.3-15.3-56.7-30-70Z"/>
      <path class="st2" d="M200,130c10,13.3,16.7,31.7,20,55-3.3,20-10,40-20,60v-115Z"/>
    </g>
    <line class="st3" x1="120" y1="200" x2="160" y2="200"/>
    <line class="st1" x1="240" y1="200" x2="280" y2="200"/>
  </g>
</svg>